<?xml version="1.0" standalone="no"?>
<!DOCTYPE svg PUBLIC "-//W3C//DTD SVG 20010904//EN"
 "http://www.w3.org/TR/2001/REC-SVG-20010904/DTD/svg10.dtd">
<svg version="1.0" xmlns="http://www.w3.org/2000/svg"
 width="2700.000000pt" height="2700.000000pt" viewBox="0 0 2700.000000 2700.000000"
 preserveAspectRatio="xMidYMid meet">
<metadata>
Created by potrace 1.11, written by Peter Selinger 2001-2013
</metadata>
<g transform="translate(0.000000,2700.000000) scale(0.100000,-0.100000)"
fill="#000000" stroke="none">
<path d="M0 13500 l0 -13500 13500 0 13500 0 0 13500 0 13500 -13500 0 -13500
0 0 -13500z m9837 10880 c59 -199 183 -695 232 -927 165 -771 265 -1564 302
-2382 15 -338 6 -1191 -15 -1501 -67 -966 -205 -1819 -432 -2675 -771 -2904
-2454 -5338 -4690 -6782 -405 -262 -897 -524 -1324 -706 -853 -364 -1805 -596
-2675 -652 -49 -3 -118 -8 -153 -11 l-62 -6 3 6474 c2 6074 4 6480 20 6588 79
525 238 947 508 1350 455 678 1164 1153 1959 1313 133 27 350 55 465 60 39 2
1364 3 2945 3 l2875 -1 42 -145z m5223 -9330 l0 -9460 5461 0 5462 0 -7 -132
c-56 -1095 -640 -2049 -1581 -2583 -347 -197 -695 -313 -1135 -378 l-145 -22
-11047 -2 -11048 -3 0 1564 0 1564 83 6 c45 3 163 10 262 16 718 42 1498 170
2225 366 2357 637 4495 2021 6208 4019 1956 2281 3218 5243 3586 8415 230
1980 114 4042 -335 5907 -21 91 -39 169 -39 174 0 5 406 9 1025 9 l1025 0 0
-9460z m10920 1565 l0 -7895 -3900 0 -3900 0 0 7895 0 7895 3900 0 3900 0 0
-7895z"/>
</g>
</svg>
